# xmcd
#
# Track frame offsets: 
#        150
#        13610
#        15389
#        32458
#        39615
#        46721
#        57748
#        58681
#        77355
#        89230
#        109661
#        113948
#
# Disc length: 1946 seconds
#
# Revision: 0
# Processed by: cddbd v1.5.2PL0 Copyright (c) Steve Scherf et al.
# Submitted via: ExactAudioCopy v0.95b3
#
DISCID=9107980c
DTITLE=The Who  - Tommy - US Stereo (DESS) Disc 2
DYEAR=1900
DGENRE=
TTITLE0=Pinball Wizard
TTITLE1=There's A Doctor I've Found
TTITLE2=Go To The Mirror Boy
TTITLE3=Tommy Can You Hear Me
TTITLE4=Smash The Mirror
TTITLE5=Sensation
TTITLE6=Miracle Cure
TTITLE7=Sally Simpson
TTITLE8=I'm Free
TTITLE9=Welcome
TTITLE10=Tommy's Holiday Camp
TTITLE11=We're Not Gonna Take It
EXTD=
EXTT0=
EXTT1=
EXTT2=
EXTT3=
EXTT4=
EXTT5=
EXTT6=
EXTT7=
EXTT8=
EXTT9=
EXTT10=
EXTT11=
PLAYORDER=
